<svg width="198" height="41" viewBox="0 0 198 41" fill="none" xmlns="http://www.w3.org/2000/svg">
    <path d="M10 20.5L20 10.5L30 20.5L20 30.5L10 20.5Z" fill="#72ED2F"/>
    <path d="M36.6667 13.8333L30 20.5V10.5H20L26.6667 3.83334H36.6667V13.8333Z" fill="#72ED2F"/>
    <path d="M36.6667 27.1667L30 20.5V30.5H20L26.6667 37.1667H36.6667V27.1667Z" fill="#72ED2F"/>
    <path d="M3.33334 27.1667L10 20.5V30.5H20L13.3333 37.1667H3.33334L3.33334 27.1667Z" fill="#72ED2F"/>
    <path d="M3.33334 13.8333L10 20.5V10.5H20L13.3333 3.83334H3.33334L3.33334 13.8333Z" fill="#72ED2F"/>
    <path d="M52.932 29.22C51.7733 29.22 50.7027 29.0293 49.72 28.648C48.752 28.252 47.9087 27.702 47.19 26.998C46.4713 26.2793 45.914 25.436 45.518 24.468C45.1367 23.4853 44.946 22.4073 44.946 21.234C44.946 20.09 45.1513 19.034 45.562 18.066C45.9727 17.098 46.5373 16.262 47.256 15.558C47.9893 14.8393 48.8473 14.282 49.83 13.886C50.8273 13.49 51.9127 13.292 53.086 13.292C53.8193 13.292 54.538 13.3873 55.242 13.578C55.946 13.7687 56.5987 14.0547 57.2 14.436C57.816 14.8027 58.344 15.2427 58.784 15.756L56.496 18.374C56.188 18.0513 55.858 17.7727 55.506 17.538C55.1687 17.2887 54.7947 17.098 54.384 16.966C53.9733 16.834 53.5333 16.768 53.064 16.768C52.4773 16.768 51.92 16.878 51.392 17.098C50.8787 17.3033 50.424 17.604 50.028 18C49.6467 18.3813 49.346 18.8507 49.126 19.408C48.906 19.9653 48.796 20.5887 48.796 21.278C48.796 21.9527 48.906 22.5687 49.126 23.126C49.346 23.6687 49.654 24.138 50.05 24.534C50.446 24.93 50.9227 25.2307 51.48 25.436C52.052 25.6413 52.6827 25.744 53.372 25.744C53.8413 25.744 54.2887 25.678 54.714 25.546C55.1393 25.414 55.528 25.238 55.88 25.018C56.2467 24.7833 56.5693 24.5193 56.848 24.226L58.652 27.086C58.2853 27.4967 57.794 27.8633 57.178 28.186C56.5767 28.5087 55.902 28.7653 55.154 28.956C54.4207 29.132 53.68 29.22 52.932 29.22ZM66.3374 29.22C65.1201 29.22 64.0347 28.956 63.0814 28.428C62.1427 27.9 61.3947 27.1813 60.8374 26.272C60.2947 25.3627 60.0234 24.3213 60.0234 23.148C60.0234 21.9747 60.2947 20.9333 60.8374 20.024C61.3947 19.1147 62.1427 18.396 63.0814 17.868C64.0347 17.34 65.1201 17.076 66.3374 17.076C67.5547 17.076 68.6327 17.34 69.5714 17.868C70.5247 18.396 71.2727 19.1147 71.8154 20.024C72.3581 20.9333 72.6294 21.9747 72.6294 23.148C72.6294 24.3213 72.3581 25.3627 71.8154 26.272C71.2727 27.1813 70.5247 27.9 69.5714 28.428C68.6327 28.956 67.5547 29.22 66.3374 29.22ZM66.3374 26.184C66.8654 26.184 67.3347 26.052 67.7454 25.788C68.1561 25.524 68.4787 25.1647 68.7134 24.71C68.9481 24.2553 69.0581 23.7347 69.0434 23.148C69.0581 22.5613 68.9481 22.0407 68.7134 21.586C68.4787 21.1167 68.1561 20.75 67.7454 20.486C67.3347 20.222 66.8654 20.09 66.3374 20.09C65.8094 20.09 65.3327 20.222 64.9074 20.486C64.4967 20.75 64.1741 21.1167 63.9394 21.586C63.7047 22.0407 63.5947 22.5613 63.6094 23.148C63.5947 23.7347 63.7047 24.2553 63.9394 24.71C64.1741 25.1647 64.4967 25.524 64.9074 25.788C65.3327 26.052 65.8094 26.184 66.3374 26.184ZM92.3916 29.198C91.4089 29.198 90.5289 28.9413 89.7516 28.428C88.9889 27.9 88.3802 27.1813 87.9256 26.272C87.4709 25.348 87.2436 24.3067 87.2436 23.148C87.2436 21.96 87.4709 20.9113 87.9256 20.002C88.3802 19.0927 89.0036 18.3813 89.7956 17.868C90.5876 17.34 91.4896 17.076 92.5016 17.076C93.0589 17.076 93.5649 17.1567 94.0196 17.318C94.4889 17.4793 94.8996 17.7067 95.2516 18C95.6036 18.2787 95.9042 18.6087 96.1536 18.99C96.4029 19.3567 96.5862 19.7527 96.7036 20.178L95.9776 20.09V17.318H99.4756V29H95.9116V26.184L96.7036 26.162C96.5862 26.5727 96.3956 26.9613 96.1316 27.328C95.8676 27.6947 95.5449 28.0173 95.1636 28.296C94.7822 28.5747 94.3569 28.7947 93.8876 28.956C93.4182 29.1173 92.9196 29.198 92.3916 29.198ZM93.3596 26.228C93.9022 26.228 94.3716 26.1033 94.7676 25.854C95.1636 25.6047 95.4716 25.2527 95.6916 24.798C95.9116 24.3287 96.0216 23.7787 96.0216 23.148C96.0216 22.5173 95.9116 21.9747 95.6916 21.52C95.4716 21.0507 95.1636 20.6913 94.7676 20.442C94.3716 20.178 93.9022 20.046 93.3596 20.046C92.8316 20.046 92.3696 20.178 91.9736 20.442C91.5922 20.6913 91.2916 21.0507 91.0716 21.52C90.8516 21.9747 90.7416 22.5173 90.7416 23.148C90.7416 23.7787 90.8516 24.3287 91.0716 24.798C91.2916 25.2527 91.5922 25.6047 91.9736 25.854C92.3696 26.1033 92.8316 26.228 93.3596 26.228ZM109.6 29.242C109.072 29.242 108.566 29.1687 108.082 29.022C107.598 28.8753 107.158 28.6773 106.762 28.428C106.38 28.1787 106.058 27.8927 105.794 27.57C105.544 27.2327 105.376 26.888 105.288 26.536L106.058 26.272L105.86 28.978H102.582V12.72H106.124V20.112L105.398 19.848C105.486 19.4667 105.654 19.1147 105.904 18.792C106.153 18.4547 106.468 18.1613 106.85 17.912C107.231 17.648 107.649 17.4427 108.104 17.296C108.558 17.1493 109.028 17.076 109.512 17.076C110.524 17.076 111.418 17.34 112.196 17.868C112.988 18.3813 113.611 19.1 114.066 20.024C114.52 20.9333 114.748 21.9747 114.748 23.148C114.748 24.336 114.52 25.392 114.066 26.316C113.626 27.2253 113.017 27.944 112.24 28.472C111.462 28.9853 110.582 29.242 109.6 29.242ZM108.676 26.272C109.204 26.272 109.666 26.14 110.062 25.876C110.458 25.612 110.758 25.2527 110.964 24.798C111.184 24.3287 111.294 23.7787 111.294 23.148C111.294 22.532 111.184 21.9893 110.964 21.52C110.758 21.0507 110.458 20.6913 110.062 20.442C109.666 20.1927 109.204 20.068 108.676 20.068C108.133 20.068 107.664 20.1927 107.268 20.442C106.872 20.6913 106.564 21.0507 106.344 21.52C106.124 21.9893 106.014 22.532 106.014 23.148C106.014 23.7787 106.124 24.3287 106.344 24.798C106.564 25.2527 106.872 25.612 107.268 25.876C107.664 26.14 108.133 26.272 108.676 26.272ZM122.562 29.22C121.345 29.22 120.259 28.956 119.306 28.428C118.367 27.9 117.619 27.1813 117.062 26.272C116.519 25.3627 116.248 24.3213 116.248 23.148C116.248 21.9747 116.519 20.9333 117.062 20.024C117.619 19.1147 118.367 18.396 119.306 17.868C120.259 17.34 121.345 17.076 122.562 17.076C123.779 17.076 124.857 17.34 125.796 17.868C126.749 18.396 127.497 19.1147 128.04 20.024C128.583 20.9333 128.854 21.9747 128.854 23.148C128.854 24.3213 128.583 25.3627 128.04 26.272C127.497 27.1813 126.749 27.9 125.796 28.428C124.857 28.956 123.779 29.22 122.562 29.22ZM122.562 26.184C123.09 26.184 123.559 26.052 123.97 25.788C124.381 25.524 124.703 25.1647 124.938 24.71C125.173 24.2553 125.283 23.7347 125.268 23.148C125.283 22.5613 125.173 22.0407 124.938 21.586C124.703 21.1167 124.381 20.75 123.97 20.486C123.559 20.222 123.09 20.09 122.562 20.09C122.034 20.09 121.557 20.222 121.132 20.486C120.721 20.75 120.399 21.1167 120.164 21.586C119.929 22.0407 119.819 22.5613 119.834 23.148C119.819 23.7347 119.929 24.2553 120.164 24.71C120.399 25.1647 120.721 25.524 121.132 25.788C121.557 26.052 122.034 26.184 122.562 26.184ZM131.156 29V17.318H134.5L134.654 21.124L133.994 20.398C134.17 19.7673 134.456 19.2027 134.852 18.704C135.262 18.2053 135.739 17.8093 136.282 17.516C136.824 17.2227 137.404 17.076 138.02 17.076C138.284 17.076 138.526 17.098 138.746 17.142C138.98 17.186 139.193 17.2373 139.384 17.296L138.416 21.19C138.254 21.0873 138.034 21.0067 137.756 20.948C137.492 20.8747 137.213 20.838 136.92 20.838C136.597 20.838 136.296 20.8967 136.018 21.014C135.739 21.1167 135.504 21.2707 135.314 21.476C135.123 21.6813 134.969 21.9233 134.852 22.202C134.749 22.4807 134.698 22.796 134.698 23.148V29H131.156ZM144.985 29.198C144.003 29.198 143.123 28.9413 142.345 28.428C141.583 27.9 140.974 27.1813 140.519 26.272C140.065 25.348 139.837 24.3067 139.837 23.148C139.837 21.96 140.065 20.9113 140.519 20.002C140.974 19.0927 141.597 18.3813 142.389 17.868C143.181 17.34 144.083 17.076 145.095 17.076C145.653 17.076 146.159 17.1567 146.613 17.318C147.083 17.4793 147.493 17.7067 147.845 18C148.197 18.2787 148.498 18.6087 148.747 18.99C148.997 19.3567 149.18 19.7527 149.297 20.178L148.571 20.09V17.318H152.069V29H148.505V26.184L149.297 26.162C149.18 26.5727 148.989 26.9613 148.725 27.328C148.461 27.6947 148.139 28.0173 147.757 28.296C147.376 28.5747 146.951 28.7947 146.481 28.956C146.012 29.1173 145.513 29.198 144.985 29.198ZM145.953 26.228C146.496 26.228 146.965 26.1033 147.361 25.854C147.757 25.6047 148.065 25.2527 148.285 24.798C148.505 24.3287 148.615 23.7787 148.615 23.148C148.615 22.5173 148.505 21.9747 148.285 21.52C148.065 21.0507 147.757 20.6913 147.361 20.442C146.965 20.178 146.496 20.046 145.953 20.046C145.425 20.046 144.963 20.178 144.567 20.442C144.186 20.6913 143.885 21.0507 143.665 21.52C143.445 21.9747 143.335 22.5173 143.335 23.148C143.335 23.7787 143.445 24.3287 143.665 24.798C143.885 25.2527 144.186 25.6047 144.567 25.854C144.963 26.1033 145.425 26.228 145.953 26.228ZM156.143 29V14.37H159.663V29H156.143ZM154.075 20.398V17.318H161.929V20.398H154.075Z" fill="white"/>
    <path d="M74.9531 29V12.72H78.4731V29H74.9531ZM81.6348 29V12.72H85.1548V29H81.6348ZM169.333 29.22C168.116 29.22 167.031 28.956 166.077 28.428C165.139 27.9 164.391 27.1813 163.833 26.272C163.291 25.3627 163.019 24.3213 163.019 23.148C163.019 21.9747 163.291 20.9333 163.833 20.024C164.391 19.1147 165.139 18.396 166.077 17.868C167.031 17.34 168.116 17.076 169.333 17.076C170.551 17.076 171.629 17.34 172.567 17.868C173.521 18.396 174.269 19.1147 174.811 20.024C175.354 20.9333 175.625 21.9747 175.625 23.148C175.625 24.3213 175.354 25.3627 174.811 26.272C174.269 27.1813 173.521 27.9 172.567 28.428C171.629 28.956 170.551 29.22 169.333 29.22ZM169.333 26.184C169.861 26.184 170.331 26.052 170.741 25.788C171.152 25.524 171.475 25.1647 171.709 24.71C171.944 24.2553 172.054 23.7347 172.039 23.148C172.054 22.5613 171.944 22.0407 171.709 21.586C171.475 21.1167 171.152 20.75 170.741 20.486C170.331 20.222 169.861 20.09 169.333 20.09C168.805 20.09 168.329 20.222 167.903 20.486C167.493 20.75 167.17 21.1167 166.935 21.586C166.701 22.0407 166.591 22.5613 166.605 23.148C166.591 23.7347 166.701 24.2553 166.935 24.71C167.17 25.1647 167.493 25.524 167.903 25.788C168.329 26.052 168.805 26.184 169.333 26.184ZM177.927 29V17.318H181.271L181.425 21.124L180.765 20.398C180.941 19.7673 181.227 19.2027 181.623 18.704C182.034 18.2053 182.511 17.8093 183.053 17.516C183.596 17.2227 184.175 17.076 184.791 17.076C185.055 17.076 185.297 17.098 185.517 17.142C185.752 17.186 185.965 17.2373 186.155 17.296L185.187 21.19C185.026 21.0873 184.806 21.0067 184.527 20.948C184.263 20.8747 183.985 20.838 183.691 20.838C183.369 20.838 183.068 20.8967 182.789 21.014C182.511 21.1167 182.276 21.2707 182.085 21.476C181.895 21.6813 181.741 21.9233 181.623 22.202C181.521 22.4807 181.469 22.796 181.469 23.148V29H177.927ZM191.877 29.22C190.733 29.22 189.721 29.0367 188.841 28.67C187.976 28.3033 187.286 27.812 186.773 27.196L188.907 25.348C189.362 25.8027 189.875 26.14 190.447 26.36C191.019 26.5653 191.562 26.668 192.075 26.668C192.28 26.668 192.464 26.646 192.625 26.602C192.786 26.558 192.918 26.4993 193.021 26.426C193.138 26.338 193.226 26.2427 193.285 26.14C193.344 26.0227 193.373 25.8907 193.373 25.744C193.373 25.4507 193.241 25.2233 192.977 25.062C192.845 24.9887 192.625 24.9007 192.317 24.798C192.009 24.6953 191.613 24.578 191.129 24.446C190.44 24.27 189.838 24.0647 189.325 23.83C188.826 23.5807 188.416 23.2947 188.093 22.972C187.8 22.664 187.572 22.3267 187.411 21.96C187.25 21.5787 187.169 21.1533 187.169 20.684C187.169 20.1413 187.294 19.65 187.543 19.21C187.807 18.77 188.152 18.3887 188.577 18.066C189.017 17.7433 189.516 17.5013 190.073 17.34C190.645 17.164 191.232 17.076 191.833 17.076C192.478 17.076 193.094 17.1493 193.681 17.296C194.268 17.4427 194.81 17.648 195.309 17.912C195.822 18.176 196.277 18.4913 196.673 18.858L194.825 20.926C194.561 20.6767 194.26 20.4567 193.923 20.266C193.6 20.0607 193.263 19.8993 192.911 19.782C192.559 19.6647 192.236 19.606 191.943 19.606C191.723 19.606 191.525 19.628 191.349 19.672C191.188 19.7013 191.048 19.76 190.931 19.848C190.814 19.9213 190.726 20.0167 190.667 20.134C190.608 20.2367 190.579 20.3613 190.579 20.508C190.579 20.6547 190.616 20.794 190.689 20.926C190.777 21.058 190.894 21.168 191.041 21.256C191.188 21.344 191.422 21.4467 191.745 21.564C192.068 21.6667 192.508 21.7987 193.065 21.96C193.754 22.1507 194.348 22.3633 194.847 22.598C195.346 22.8327 195.742 23.1113 196.035 23.434C196.27 23.6833 196.446 23.9767 196.563 24.314C196.68 24.6367 196.739 24.9887 196.739 25.37C196.739 26.118 196.526 26.7853 196.101 27.372C195.69 27.944 195.118 28.3987 194.385 28.736C193.652 29.0587 192.816 29.22 191.877 29.22Z" fill="#72ED2F"/>
</svg>
