<?xml version="1.0" encoding="utf-8"?>
<!-- Generator: Adobe Illustrator 28.1.0, SVG Export Plug-In . SVG Version: 6.00 Build 0)  -->
<svg version="1.1" id="Layer_1" xmlns="http://www.w3.org/2000/svg" xmlns:xlink="http://www.w3.org/1999/xlink" x="0px" y="0px"
	 viewBox="0 0 198 41" style="enable-background:new 0 0 198 41;" xml:space="preserve">
<style type="text/css">
	.st0{fill:#FFFFFF;stroke:#231F20;stroke-width:0.2;stroke-miterlimit:10;}
	.st1{fill:#72ED2F;}
</style>
<g>
	<path class="st0" d="M45.4,20.3c0-1.1,0.2-2.2,0.6-3.2s1-2,1.7-2.8c0.8-0.8,1.7-1.5,2.8-2c1.1-0.5,2.3-0.8,3.7-0.8
		c1.6,0,3,0.4,4.2,1.1c1.2,0.7,2.1,1.6,2.6,2.8l-2.6,1.8c-0.3-0.7-0.7-1.2-1.2-1.6c-0.5-0.4-1-0.7-1.6-0.8c-0.6-0.2-1.1-0.2-1.6-0.2
		c-0.9,0-1.6,0.2-2.3,0.5c-0.6,0.3-1.2,0.8-1.6,1.4c-0.4,0.6-0.7,1.2-1,1.9c-0.2,0.7-0.3,1.4-0.3,2.1c0,0.8,0.1,1.5,0.4,2.2
		c0.2,0.7,0.6,1.4,1.1,1.9s1,1,1.6,1.3c0.6,0.3,1.3,0.5,2.1,0.5c0.5,0,1.1-0.1,1.6-0.3c0.6-0.2,1.1-0.5,1.6-0.9
		c0.5-0.4,0.9-0.9,1.2-1.6l2.8,1.7c-0.4,0.9-0.9,1.6-1.7,2.2c-0.8,0.6-1.7,1.1-2.6,1.4S55,29.4,54,29.4c-1.3,0-2.4-0.3-3.5-0.8
		c-1-0.5-1.9-1.2-2.7-2.1c-0.8-0.9-1.4-1.9-1.8-3C45.6,22.5,45.4,21.4,45.4,20.3z"/>
	<path class="st0" d="M69.4,29.6c-1.1,0-2-0.2-2.9-0.5c-0.8-0.4-1.6-0.9-2.2-1.5c-0.6-0.6-1.1-1.3-1.4-2.1c-0.3-0.8-0.5-1.6-0.5-2.5
		c0-0.9,0.2-1.8,0.5-2.6c0.3-0.8,0.8-1.5,1.4-2.1c0.6-0.6,1.3-1.1,2.2-1.5c0.8-0.4,1.8-0.5,2.8-0.5c1.1,0,2,0.2,2.9,0.5
		c0.8,0.4,1.6,0.8,2.2,1.5c0.6,0.6,1.1,1.3,1.4,2.1c0.3,0.8,0.5,1.7,0.5,2.6c0,0.9-0.2,1.7-0.5,2.5c-0.3,0.8-0.8,1.5-1.4,2.1
		c-0.6,0.6-1.3,1.1-2.2,1.5C71.4,29.4,70.4,29.6,69.4,29.6z M65.9,22.8c0,0.7,0.1,1.4,0.5,2c0.3,0.6,0.7,1,1.2,1.4
		c0.5,0.3,1.1,0.5,1.7,0.5c0.6,0,1.2-0.2,1.7-0.5s0.9-0.8,1.2-1.4c0.3-0.6,0.5-1.2,0.5-2c0-0.7-0.2-1.4-0.5-2
		c-0.3-0.6-0.7-1-1.2-1.4S70,19,69.3,19c-0.6,0-1.2,0.2-1.7,0.5c-0.5,0.3-0.9,0.8-1.2,1.4C66.1,21.4,65.9,22.1,65.9,22.8z"/>
	<path class="st0" d="M90.6,29.3h-3.4v-7.2c0-1-0.2-1.8-0.5-2.3c-0.4-0.5-0.9-0.7-1.5-0.7c-0.4,0-0.9,0.1-1.4,0.3
		c-0.5,0.2-0.9,0.5-1.2,0.9c-0.4,0.4-0.6,0.9-0.8,1.4v7.6h-3.3v-13h3v2.4c0.3-0.6,0.8-1,1.3-1.4c0.5-0.4,1.1-0.7,1.8-0.9
		c0.7-0.2,1.4-0.3,2.1-0.3c0.8,0,1.5,0.1,2,0.4c0.5,0.3,0.9,0.7,1.2,1.2s0.5,1,0.6,1.6c0.1,0.6,0.2,1.2,0.2,1.8V29.3z"/>
	<path class="st1" d="M94.7,29.3v-10h-2v-3h2v-4.2h3.4v4.2h3v3h-3v10H94.7z"/>
	<path class="st1" d="M111.2,19.1c-1,0-1.9,0.2-2.8,0.6c-0.8,0.4-1.4,0.9-1.8,1.7v8h-3.3v-13h3.1V19c0.5-0.9,1.1-1.6,1.8-2.1
		c0.7-0.5,1.5-0.8,2.3-0.9c0.2,0,0.3,0,0.4,0c0.1,0,0.2,0,0.3,0V19.1z"/>
	<path class="st1" d="M113.1,14.3v-3.3h3.3v3.3H113.1z M113.1,29.3V16.2h3.3v13.1H113.1z"/>
	<path class="st0" d="M126.9,29.6c-1,0-1.9-0.2-2.7-0.7s-1.4-1.1-1.8-1.9v2.3h-2.9V11.1h3.3v7.6c0.5-0.8,1.1-1.4,1.9-1.9
		c0.8-0.5,1.6-0.7,2.7-0.7c0.8,0,1.6,0.2,2.3,0.5c0.7,0.4,1.3,0.8,1.8,1.5c0.5,0.6,0.9,1.3,1.2,2.2c0.3,0.8,0.4,1.7,0.4,2.6
		c0,0.9-0.2,1.8-0.5,2.6c-0.3,0.8-0.8,1.5-1.3,2.1c-0.6,0.6-1.2,1.1-1.9,1.4C128.6,29.4,127.8,29.6,126.9,29.6z M126,26.7
		c0.5,0,1-0.1,1.5-0.3c0.5-0.2,0.8-0.5,1.2-0.8s0.6-0.8,0.7-1.2c0.2-0.5,0.3-1,0.3-1.5c0-0.7-0.1-1.3-0.4-1.9
		c-0.3-0.6-0.7-1.1-1.2-1.4c-0.5-0.4-1.1-0.5-1.8-0.5c-0.5,0-0.9,0.1-1.4,0.3c-0.4,0.2-0.8,0.5-1.2,0.9c-0.3,0.4-0.6,0.8-0.8,1.3
		v3.1c0.1,0.3,0.3,0.6,0.5,0.9c0.2,0.3,0.5,0.5,0.8,0.7c0.3,0.2,0.6,0.3,0.9,0.4C125.3,26.6,125.7,26.7,126,26.7z"/>
	<path class="st0" d="M144.2,29.3v-2.2c-0.3,0.5-0.7,1-1.2,1.4s-1,0.6-1.6,0.8c-0.6,0.2-1.2,0.3-1.9,0.3c-0.8,0-1.5-0.1-2-0.4
		c-0.6-0.2-1-0.6-1.4-1s-0.6-1-0.8-1.6c-0.2-0.6-0.2-1.3-0.2-2.1v-8.1h3.4v7.4c0,0.6,0.1,1.1,0.2,1.5c0.1,0.5,0.4,0.8,0.7,1.1
		c0.3,0.3,0.8,0.4,1.4,0.4c0.4,0,0.8-0.1,1.2-0.3c0.4-0.2,0.8-0.4,1.1-0.8c0.4-0.4,0.7-0.8,0.9-1.2v-8h3.4v13H144.2z"/>
	<path class="st0" d="M158.3,28.6c-0.3,0.1-0.6,0.3-1,0.4c-0.4,0.1-0.8,0.3-1.3,0.3c-0.5,0.1-0.9,0.1-1.4,0.1
		c-0.6,0-1.2-0.1-1.7-0.3s-0.9-0.6-1.2-1c-0.3-0.5-0.5-1.1-0.5-1.8v-7.5h-1.7v-2.6h1.7v-4.2h3.4v4.2h2.8v2.6h-2.8v6.3
		c0,0.4,0.1,0.8,0.4,1c0.2,0.2,0.5,0.3,0.9,0.3c0.3,0,0.7-0.1,1-0.2c0.3-0.1,0.6-0.2,0.8-0.3L158.3,28.6z"/>
	<path class="st1" d="M166.1,29.6c-1.1,0-2-0.2-2.9-0.5c-0.8-0.4-1.6-0.9-2.2-1.5c-0.6-0.6-1.1-1.3-1.4-2.1
		c-0.3-0.8-0.5-1.6-0.5-2.5c0-0.9,0.2-1.8,0.5-2.6s0.8-1.5,1.3-2.1c0.6-0.6,1.3-1.1,2.2-1.5c0.8-0.4,1.8-0.5,2.8-0.5
		c1.1,0,2,0.2,2.9,0.5c0.8,0.4,1.6,0.8,2.2,1.5c0.6,0.6,1.1,1.3,1.4,2.1s0.5,1.7,0.5,2.6c0,0.9-0.2,1.7-0.5,2.5
		c-0.3,0.8-0.8,1.5-1.4,2.1c-0.6,0.6-1.3,1.1-2.2,1.5S167.2,29.6,166.1,29.6z M162.7,22.8c0,0.7,0.1,1.4,0.4,2
		c0.3,0.6,0.7,1,1.2,1.4c0.5,0.3,1.1,0.5,1.7,0.5c0.6,0,1.2-0.2,1.7-0.5s0.9-0.8,1.2-1.4c0.3-0.6,0.5-1.2,0.5-2c0-0.7-0.2-1.4-0.5-2
		s-0.7-1-1.2-1.4s-1.1-0.5-1.8-0.5c-0.6,0-1.2,0.2-1.7,0.5s-0.9,0.8-1.2,1.4C162.9,21.4,162.7,22.1,162.7,22.8z"/>
	<path class="st1" d="M183.1,19.1c-1,0-1.9,0.2-2.8,0.6c-0.8,0.4-1.4,0.9-1.8,1.7v8h-3.3v-13h3.1V19c0.5-0.9,1.1-1.6,1.8-2.1
		c0.7-0.5,1.5-0.8,2.3-0.9c0.2,0,0.3,0,0.4,0c0.1,0,0.2,0,0.3,0V19.1z"/>
	<path class="st1" d="M189.7,29.6c-1.1,0-2.2-0.2-3.2-0.5c-1-0.4-1.9-0.9-2.6-1.6l1.2-2.2c0.8,0.6,1.5,1.1,2.3,1.4s1.5,0.5,2.2,0.5
		c0.7,0,1.2-0.1,1.6-0.3c0.4-0.2,0.6-0.6,0.6-1c0-0.3-0.1-0.6-0.3-0.8s-0.5-0.3-0.9-0.4s-0.9-0.3-1.5-0.4c-1-0.3-1.8-0.6-2.4-0.9
		c-0.6-0.3-1.1-0.7-1.5-1.1c-0.3-0.5-0.5-1-0.5-1.7c0-0.9,0.2-1.6,0.7-2.2s1.1-1.1,1.9-1.4c0.8-0.3,1.7-0.5,2.8-0.5
		c0.9,0,1.8,0.1,2.7,0.4c0.8,0.3,1.6,0.8,2.3,1.4l-1.4,2.2c-0.6-0.5-1.3-0.9-1.9-1.2c-0.6-0.2-1.2-0.4-1.8-0.4c-0.4,0-0.7,0-1,0.1
		s-0.6,0.2-0.8,0.4c-0.2,0.2-0.3,0.5-0.3,0.8c0,0.3,0.1,0.5,0.3,0.7c0.2,0.2,0.4,0.3,0.8,0.5c0.4,0.1,0.8,0.3,1.3,0.4
		c1,0.3,1.9,0.6,2.7,0.9c0.7,0.3,1.3,0.7,1.6,1.1c0.4,0.5,0.6,1.1,0.6,1.9c0,1.3-0.5,2.3-1.4,3C192.6,29.2,191.3,29.6,189.7,29.6z"
		/>
</g>
<g id="uuid-8c987dcd-fb53-470f-bc3b-1ec1ecdd90a6">
	<g>
		<g>
			<path class="st1" d="M36.7,14.8c-3-1.6-4,1.6-1.5,1.9c6.8,2,5.1,12.7-2.3,12c-0.9,0-2.6-2.4-3.5-3c-0.2-0.2-0.2-0.3,0-0.5
				c0.7-0.6,1.3-1.3,2-2c1-0.8,0.7-2.2,0.8-3.3c0-3.1,0-6.2,0-9.3c0-0.5-0.2-0.9-0.7-1.2c-0.8-0.4-1.8,0.3-1.8,1.2
				c-0.1,3.5,0.1,7.1,0,10.6c-0.1,0.9-1.5,1.6-2.1,2.4c-0.2,0.2-0.4,0.2-0.5,0c-3.5-3.9-6-1.8-9,1.2c-0.8,1-1.6-0.7-0.8-1.2
				c1.4-1.4,2.9-2.8,4.3-4.2c0.2-0.2,0.4-0.3,0.7-0.3c1.4,0,2.8,0.1,4.2-0.1c1.3-0.3,1.1-2.2-0.2-2.3c-1.2-0.1-2.5-0.1-3.7-0.1
				c-1.1,0-2,0.4-2.8,1.1c-0.8,0.8-1.6,1.5-2.4,2.3c-0.1,0.1-0.1,0.2-0.2,0.1c-0.1,0-0.1-0.2-0.1-0.3c0-2.3,0-4.7,0-7h0
				c0-2.3,0-4.5,0-6.8c0-0.8-0.4-1.3-1.1-1.3c-0.7,0-1.2,0.5-1.3,1.2c-0.1,2.8,0,5.6-0.1,8.4c0,0.5,0,0.5-0.5,0.3
				C2.1,10.9-1.3,30.6,11.9,31.1c0.4,0,0.8,0.1,1.1,0.4c2.4,2.5,4.9,5,7.3,7.4c0.6,0.6,1.3,0.6,1.8,0.1c0.5-0.5,0.5-1.2-0.1-1.8
				c-2.6-2.6-5.2-5.2-7.8-7.9c-0.4-0.4-0.8-0.6-1.4-0.6c-2.4,0.2-4.7-0.6-6-2.6c-3.7-4.7,1.9-11.9,7.3-9.2c1,1,2,2,3,3
				c0.5,0.3-1,1.3-1.3,1.7c-3,2.8,0.7,7.6,4,4.8c0.8-0.7,1.6-1.5,2.3-2.2c0.7-0.8,2-0.8,2.6,0c2,2,4,4,6,6c0.4,0.4,0.8,0.6,1.4,0.7
				C42,32.5,45.9,18.7,36.7,14.8L36.7,14.8z"/>
		</g>
		<g>
			<path class="st1" d="M23.4,13c0.8,0.2,1.5-0.4,1.5-1.3c0-2.9,0-5.8,0-8.7c0-0.8-0.5-1.3-1.2-1.3c-0.7,0-1.2,0.5-1.2,1.3
				c0,1.4,0,2.9,0,4.3h0c0,1.5,0,3,0,4.5C22.4,12.5,22.7,12.9,23.4,13L23.4,13z"/>
		</g>
		<g>
			<path class="st1" d="M18.6,11.9c0.1,0.7,0.6,1.2,1.3,1.2c0.7,0,1.2-0.5,1.2-1.3c0-1.4,0-2.8,0-4.2h0c0-1.4,0-2.9,0-4.3
				c0-0.6-0.4-1.1-0.9-1.1c-0.7-0.1-1.2,0.2-1.4,0.8C18.4,5.9,18.6,8.9,18.6,11.9L18.6,11.9z"/>
		</g>
		<g>
			<path class="st1" d="M27.3,13c0.8,0,1.3-0.5,1.3-1.3c0-1.1,0-2.1,0-3.2h0c0-1.1,0-2.1,0-3.2c0-1.8-2.5-1.8-2.4,0
				c0,2.1,0,4.2,0,6.4C26.1,12.5,26.6,13,27.3,13L27.3,13z"/>
		</g>
		<g>
			<path class="st1" d="M28.1,33.7c-1.1-1.1-2.3-2.3-3.4-3.4c-0.6-0.7-1.9-0.5-2.1,0.5c-0.2,0.6,0.1,1,0.5,1.3c1,1,2,2,3,3
				c0.8,0.7,1.7,2.4,3,1.7C30.5,35.8,28.9,34.5,28.1,33.7L28.1,33.7z"/>
		</g>
		<g>
			<path class="st1" d="M31,31.9c-1.4-1.4-2.8-2.8-4.2-4.2c-0.2-0.2-0.5-0.4-0.8-0.4c-1,0-1.6,1-1.1,1.8c1,1.3,2.4,2.3,3.4,3.5
				c0.4,0.4,0.8,0.8,1.2,1.2C30.9,35,32.4,33.1,31,31.9L31,31.9z"/>
		</g>
		<g>
			<path class="st1" d="M21.9,32.4c-1.1-1.2-2.9,0.6-1.7,1.7c1.3,1.3,2.6,2.6,3.9,4c0.3,0.3,0.6,0.4,0.8,0.4
				c1.3,0.1,1.8-1.3,0.9-2.1C24.6,35,23.3,33.7,21.9,32.4L21.9,32.4z"/>
		</g>
	</g>
</g>
</svg>
